#N canvas 1083 255 799 798 10;
#X obj 65 96 mtof;
#X floatatom 65 70 5 0 0 0 - - -;
#X floatatom 65 123 5 0 0 0 - - -;
#X obj 247 449 *~;
#N canvas 560 290 371 380 osciladores 0;
#X obj 64 36 inlet;
#X obj 65 318 outlet~;
#X obj 64 193 *~;
#X obj 172 194 *~;
#X obj 269 133 r osc_mix;
#X floatatom 187 232 5 0 0 0 - - -;
#X obj 269 194 - 1;
#X obj 269 215 abs;
#X floatatom 79 232 5 0 0 0 - - -;
#N canvas 74 100 368 507 osc1 0;
#X obj 50 57 inlet;
#X obj 119 449 outlet~;
#X obj 50 294 *~ 0.1;
#X obj 51 364 *~;
#X obj 188 294 *~ 0.1;
#X obj 187 364 *~;
#X obj 118 294 *~ 0.1;
#X obj 119 364 *~;
#X obj 66 342 tgl 15 0 empty empty empty 17 7 0 10 -262144 -1 -1 0
1;
#X obj 134 342 tgl 15 0 empty empty empty 17 7 0 10 -262144 -1 -1 1
1;
#X obj 202 342 tgl 15 0 empty empty empty 17 7 0 10 -262144 -1 -1 0
1;
#X obj 134 318 r phasor1;
#X obj 50 270 osc~;
#X obj 265 362 *~ 0.1;
#X obj 264 432 *~;
#X obj 279 410 tgl 15 0 empty empty empty 17 7 0 10 -262144 -1 -1 0
1;
#X obj 279 386 r noise1;
#X obj 265 338 noise~;
#X obj 202 318 r square1;
#X floatatom 183 64 5 0 0 0 - - -;
#X obj 142 145 pow 1;
#X obj 142 64 t b f;
#X obj 142 27 r fine1;
#X obj 50 104 t f b;
#X obj 50 162 *;
#X msg 142 121 2;
#X obj 169 87 / 12;
#X obj 66 318 r sin1;
#N canvas 846 278 226 133 saw 0;
#X obj 89 72 -~ 0.5;
#X obj 89 96 *~ 2;
#X obj 89 48 phasor~;
#X obj 89 24 inlet;
#X obj 89 120 outlet~;
#X connect 0 0 1 0;
#X connect 1 0 4 0;
#X connect 2 0 0 0;
#X connect 3 0 2 0;
#X restore 118 270 pd saw;
#N canvas 1088 278 225 133 square 0;
#X obj 69 19 inlet;
#X obj 69 139 outlet~;
#X obj 69 115 blosc~ comparator;
#X obj 69 43 phasor~ 0.5;
#X obj 69 67 expr~ $v1 > 0.5;
#X obj 69 91 -~ 0.5;
#X connect 0 0 3 0;
#X connect 2 0 1 0;
#X connect 3 0 4 0;
#X connect 4 0 5 0;
#X connect 5 0 2 0;
#X restore 188 270 pd square;
#X floatatom 50 81 5 0 0 0 - - -;
#X floatatom 50 186 5 0 0 0 - - -;
#X connect 0 0 30 0;
#X connect 2 0 3 0;
#X connect 3 0 1 0;
#X connect 4 0 5 0;
#X connect 5 0 1 0;
#X connect 6 0 7 0;
#X connect 7 0 1 0;
#X connect 8 0 3 1;
#X connect 9 0 7 1;
#X connect 10 0 5 1;
#X connect 11 0 9 0;
#X connect 12 0 2 0;
#X connect 13 0 14 0;
#X connect 14 0 1 0;
#X connect 15 0 14 1;
#X connect 16 0 15 0;
#X connect 17 0 13 0;
#X connect 18 0 10 0;
#X connect 20 0 24 1;
#X connect 21 0 30 0;
#X connect 21 1 26 0;
#X connect 22 0 21 0;
#X connect 22 0 19 0;
#X connect 23 0 24 0;
#X connect 23 1 25 0;
#X connect 24 0 31 0;
#X connect 25 0 20 0;
#X connect 26 0 20 1;
#X connect 27 0 8 0;
#X connect 28 0 6 0;
#X connect 29 0 4 0;
#X connect 30 0 23 0;
#X connect 31 0 12 0;
#X connect 31 0 28 0;
#X connect 31 0 29 0;
#X restore 64 107 pd osc1;
#N canvas 460 101 368 507 osc2 0;
#X obj 50 57 inlet;
#X obj 119 449 outlet~;
#X obj 50 294 *~ 0.1;
#X obj 51 364 *~;
#X obj 188 294 *~ 0.1;
#X obj 187 364 *~;
#X obj 118 294 *~ 0.1;
#X obj 119 364 *~;
#X obj 66 342 tgl 15 0 empty empty empty 17 7 0 10 -262144 -1 -1 0
1;
#X obj 134 342 tgl 15 0 empty empty empty 17 7 0 10 -262144 -1 -1 1
1;
#X obj 202 342 tgl 15 0 empty empty empty 17 7 0 10 -262144 -1 -1 0
1;
#X obj 50 270 osc~;
#X obj 265 362 *~ 0.1;
#X obj 264 432 *~;
#X obj 279 410 tgl 15 0 empty empty empty 17 7 0 10 -262144 -1 -1 0
1;
#X obj 265 338 noise~;
#X floatatom 183 64 5 0 0 0 - - -;
#X obj 142 145 pow 1;
#X obj 142 64 t b f;
#X obj 50 104 t f b;
#X obj 50 162 *;
#X msg 142 121 2;
#X obj 169 87 / 12;
#X obj 66 318 r sin2;
#X obj 134 318 r phasor2;
#X obj 202 318 r square2;
#X obj 279 386 r noise2;
#X floatatom 50 81 5 0 0 0 - - -;
#X floatatom 50 186 5 0 0 0 - - -;
#X obj 142 27 r fine2;
#N canvas 846 278 226 133 saw 0;
#X obj 89 72 -~ 0.5;
#X obj 89 96 *~ 2;
#X obj 89 48 phasor~;
#X obj 89 24 inlet;
#X obj 89 120 outlet~;
#X connect 0 0 1 0;
#X connect 1 0 4 0;
#X connect 2 0 0 0;
#X connect 3 0 2 0;
#X restore 118 270 pd saw;
#N canvas 1088 278 225 131 square 0;
#X obj 69 19 inlet;
#X obj 69 139 outlet~;
#X obj 69 115 blosc~ comparator;
#X obj 69 43 phasor~ 0.5;
#X obj 69 67 expr~ $v1 > 0.5;
#X obj 69 91 -~ 0.5;
#X connect 0 0 3 0;
#X connect 2 0 1 0;
#X connect 3 0 4 0;
#X connect 4 0 5 0;
#X connect 5 0 2 0;
#X restore 188 270 pd square;
#X connect 0 0 27 0;
#X connect 2 0 3 0;
#X connect 3 0 1 0;
#X connect 4 0 5 0;
#X connect 5 0 1 0;
#X connect 6 0 7 0;
#X connect 7 0 1 0;
#X connect 8 0 3 1;
#X connect 9 0 7 1;
#X connect 10 0 5 1;
#X connect 11 0 2 0;
#X connect 12 0 13 0;
#X connect 13 0 1 0;
#X connect 14 0 13 1;
#X connect 15 0 12 0;
#X connect 17 0 20 1;
#X connect 18 0 27 0;
#X connect 18 1 22 0;
#X connect 19 0 20 0;
#X connect 19 1 21 0;
#X connect 20 0 28 0;
#X connect 21 0 17 0;
#X connect 22 0 17 1;
#X connect 23 0 8 0;
#X connect 24 0 9 0;
#X connect 25 0 10 0;
#X connect 26 0 14 0;
#X connect 27 0 19 0;
#X connect 28 0 11 0;
#X connect 28 0 31 0;
#X connect 28 0 30 0;
#X connect 29 0 18 0;
#X connect 29 0 16 0;
#X connect 30 0 6 0;
#X connect 31 0 4 0;
#X restore 172 107 pd osc2;
#X connect 0 0 9 0;
#X connect 0 0 10 0;
#X connect 2 0 1 0;
#X connect 3 0 1 0;
#X connect 4 0 5 0;
#X connect 4 0 6 0;
#X connect 5 0 3 1;
#X connect 6 0 7 0;
#X connect 7 0 8 0;
#X connect 8 0 2 1;
#X connect 9 0 2 0;
#X connect 10 0 3 0;
#X restore 187 215 pd osciladores;
#X obj 65 17 inlet;
#X obj 65 43 unpack;
#X obj 205 351 > 0;
#N canvas 521 343 545 510 amp_env 0;
#X obj 58 38 inlet;
#X obj 58 254 vline~;
#X obj 58 62 sel 1 0;
#X obj 58 278 outlet~;
#X floatatom 78 110 5 0 0 1 attack - -;
#X floatatom 98 129 5 0 1 1 sustain_level - -;
#X floatatom 118 148 5 0 0 1 decay - -;
#X msg 58 210 0 \, 1 \$2 \, \$3 \$4 \$2;
#X msg 58 90 bang;
#X floatatom 139 166 10 0 0 1 release - -;
#X obj 58 188 pack 0 0 0 0 0;
#X msg 191 205 \$5;
#X obj 146 237 pack 0 0;
#X msg 146 79 bang;
#X obj 256 77 vsl 13 128 0 1 0 0 empty empty a 0 -9 0 10 -262144 -1
-1 0 1;
#X obj 300 77 vsl 13 128 0 1 0 0 empty empty d 0 -9 0 10 -262144 -1
-1 12700 1;
#X obj 344 77 vsl 13 128 0 1 0 0 empty empty s 0 -9 0 10 -262144 -1
-1 12700 1;
#X obj 388 77 vsl 13 128 0 1 0 0 empty empty r 0 -9 0 10 -262144 -1
-1 12700 1;
#X obj 256 244 + 5;
#X floatatom 256 272 5 0 0 0 - - -;
#X obj 300 222 * 4995;
#X obj 300 244 + 5;
#X floatatom 300 272 5 0 0 0 - - -;
#X obj 388 244 + 5;
#X floatatom 388 272 9 0 0 0 - - -;
#X obj 256 27 r amp_a;
#X obj 300 49 r amp_d;
#X obj 344 27 r amp_s;
#X obj 388 49 r amp_r;
#X obj 428 149 bng 15 250 50 0 empty empty empty 17 7 0 10 -262144
-1 -1;
#X floatatom 444 219 5 0 0 0 - - -;
#X obj 217 378 s amp_a_s;
#X obj 299 399 s amp_d_s;
#X obj 344 317 s amp_s_s;
#X obj 412 371 s amp_r_s;
#X obj 200 302 * 0.001, f 9;
#X floatatom 245 344 5 0 0 0 - - -;
#X obj 412 307 * 0.001, f 6;
#X floatatom 412 348 5 0 0 0 - - -;
#X obj 298 305 * 0.001, f 6;
#X floatatom 298 346 5 0 0 0 - - -;
#X obj 388 222 * 19000;
#X obj 256 222 * 19000;
#X connect 0 0 2 0;
#X connect 1 0 3 0;
#X connect 2 0 8 0;
#X connect 2 1 13 0;
#X connect 4 0 10 1;
#X connect 5 0 10 2;
#X connect 6 0 10 3;
#X connect 7 0 1 0;
#X connect 8 0 10 0;
#X connect 9 0 10 4;
#X connect 10 0 7 0;
#X connect 10 0 11 0;
#X connect 11 0 12 1;
#X connect 12 0 1 0;
#X connect 13 0 12 0;
#X connect 14 0 42 0;
#X connect 15 0 20 0;
#X connect 16 0 5 0;
#X connect 16 0 33 0;
#X connect 17 0 30 0;
#X connect 17 0 41 0;
#X connect 18 0 19 0;
#X connect 19 0 4 0;
#X connect 19 0 35 0;
#X connect 20 0 21 0;
#X connect 21 0 22 0;
#X connect 22 0 6 0;
#X connect 22 0 39 0;
#X connect 23 0 24 0;
#X connect 24 0 9 0;
#X connect 24 0 37 0;
#X connect 25 0 14 0;
#X connect 26 0 15 0;
#X connect 27 0 16 0;
#X connect 28 0 17 0;
#X connect 29 0 41 0;
#X connect 35 0 36 0;
#X connect 36 0 31 0;
#X connect 37 0 38 0;
#X connect 38 0 34 0;
#X connect 39 0 40 0;
#X connect 40 0 32 0;
#X connect 41 0 23 0;
#X connect 42 0 18 0;
#X restore 205 375 pd amp_env;
#X obj 220 548 outlet~;
#N canvas 900 291 513 493 filter 0;
#X obj 109 29 inlet~;
#X obj 105 381 outlet~;
#X floatatom 119 118 5 0 0 0 - - -;
#X floatatom 234 290 5 0 0 0 - - -;
#X obj 119 141 sig~;
#X obj 193 25 r freq_filt;
#X obj 234 210 r q_filt;
#X obj 119 196 +~;
#X obj 119 287 *~;
#X obj 135 233 inlet;
#X obj 134 172 r~ lfo_filt;
#N canvas 68 507 575 431 filter_env 0;
#X obj 58 38 inlet;
#X obj 58 254 vline~;
#X obj 58 62 sel 1 0;
#X obj 58 278 outlet~;
#X floatatom 78 110 5 0 0 1 attack - -;
#X floatatom 98 129 5 0 1 1 sustain_level - -;
#X floatatom 118 148 5 0 0 1 decay - -;
#X msg 58 210 0 \, 1 \$2 \, \$3 \$4 \$2;
#X msg 58 90 bang;
#X floatatom 139 166 5 0 0 1 release - -;
#X obj 58 188 pack 0 0 0 0 0;
#X msg 191 205 \$5;
#X obj 146 237 pack 0 0;
#X msg 146 79 bang;
#X obj 256 77 vsl 13 128 0 1 0 0 empty empty a 0 -9 0 10 -262144 -1
-1 0 1;
#X obj 337 75 vsl 13 128 0 1 0 0 empty empty d 0 -9 0 10 -262144 -1
-1 12700 1;
#X obj 409 77 vsl 13 128 0 1 0 0 empty empty s 0 -9 0 10 -262144 -1
-1 12700 1;
#X obj 477 79 vsl 13 128 0 30 0 0 empty empty r 0 -9 0 10 -262144 -1
-1 423 1;
#X obj 256 244 + 5;
#X floatatom 256 272 5 0 0 0 - - -;
#X obj 337 220 * 4995;
#X obj 337 242 + 5;
#X floatatom 337 270 5 0 0 0 - - -;
#X obj 477 247 + 5;
#X floatatom 477 275 11 0 0 0 - - -;
#X obj 256 27 r fq_a;
#X obj 337 47 r fq_d;
#X obj 409 27 r fq_s;
#X obj 477 52 r fq_r;
#X obj 257 304 * 0.001;
#X floatatom 257 327 5 0 0 0 - - -;
#X obj 232 353 s \$1-fq_a_s;
#X obj 337 303 * 0.001;
#X floatatom 336 327 5 0 0 0 - - -;
#X obj 479 306 * 0.001;
#X floatatom 479 329 5 0 0 0 - - -;
#X obj 311 353 s \$1-fq_d_s;
#X obj 454 355 s \$1-fq_r_s;
#X obj 384 327 s \$1-fq_s_s;
#X obj 477 225 * 19000;
#X obj 256 221 * 19000;
#X connect 0 0 2 0;
#X connect 1 0 3 0;
#X connect 2 0 8 0;
#X connect 2 1 13 0;
#X connect 4 0 10 1;
#X connect 5 0 10 2;
#X connect 6 0 10 3;
#X connect 7 0 1 0;
#X connect 8 0 10 0;
#X connect 9 0 10 4;
#X connect 10 0 7 0;
#X connect 10 0 11 0;
#X connect 11 0 12 1;
#X connect 12 0 1 0;
#X connect 13 0 12 0;
#X connect 14 0 40 0;
#X connect 15 0 20 0;
#X connect 16 0 5 0;
#X connect 16 0 38 0;
#X connect 17 0 39 0;
#X connect 18 0 19 0;
#X connect 19 0 4 0;
#X connect 19 0 29 0;
#X connect 20 0 21 0;
#X connect 21 0 22 0;
#X connect 22 0 6 0;
#X connect 22 0 32 0;
#X connect 23 0 24 0;
#X connect 24 0 9 0;
#X connect 24 0 34 0;
#X connect 25 0 14 0;
#X connect 26 0 15 0;
#X connect 27 0 16 0;
#X connect 28 0 17 0;
#X connect 29 0 30 0;
#X connect 30 0 31 0;
#X connect 32 0 33 0;
#X connect 33 0 36 0;
#X connect 34 0 35 0;
#X connect 35 0 37 0;
#X connect 39 0 23 0;
#X connect 40 0 18 0;
#X restore 135 257 pd filter_env;
#X text 274 365 Q/Reso Output;
#X floatatom 310 158 5 0 0 0 - - -;
#X obj 279 284 sigmund~ -hop 4096 pitch env;
#X floatatom 432 323 5 0 0 0 - - -;
#X text 358 158 freq_filt Output;
#X text 303 257 filter_env output;
#X obj 310 184 s freq_filt_s;
#X obj 432 347 s filter_env_s;
#X obj 234 390 s q_filt_s;
#X obj 234 343 / 10;
#X floatatom 233 365 5 0 0 0 - - -;
#X obj 305 134 / 12000;
#X obj 108 345 vcf~;
#X obj 194 56 * 11950;
#X obj 242 233 * 9;
#X obj 242 257 + 1;
#X obj 194 80 + 0;
#X connect 0 0 24 0;
#X connect 2 0 4 0;
#X connect 2 0 23 0;
#X connect 3 0 21 0;
#X connect 3 0 24 2;
#X connect 4 0 7 0;
#X connect 5 0 25 0;
#X connect 6 0 26 0;
#X connect 7 0 8 0;
#X connect 8 0 24 1;
#X connect 9 0 11 0;
#X connect 10 0 7 1;
#X connect 11 0 8 1;
#X connect 11 0 14 0;
#X connect 13 0 18 0;
#X connect 14 1 15 0;
#X connect 15 0 19 0;
#X connect 21 0 22 0;
#X connect 22 0 20 0;
#X connect 23 0 13 0;
#X connect 24 0 1 0;
#X connect 25 0 28 0;
#X connect 26 0 27 0;
#X connect 27 0 3 0;
#X connect 28 0 2 0;
#X restore 187 241 pd filter;
#X obj 301 414 sigmund~ -hop 4096 pitch env;
#X floatatom 466 436 5 0 0 0 - - -;
#X obj 307 305 sigmund~ -hop 4096 pitch env;
#X floatatom 472 335 5 0 0 0 - - -;
#X obj 241 516 sigmund~ -hop 4096 pitch env;
#X floatatom 412 581 5 0 0 0 - - -;
#X text 306 275 Complete filter output after filt_env;
#X text 303 480 Complete audio output after amp_env \, including all
audio processing (filter \, Lfo \, waveforms), f 46;
#X text 298 389 Only amplitude output after amp_env;
#X obj 466 458 s amp_env_s;
#X obj 412 607 s \$1-voice_s;
#X obj 411 550 / 77.72;
#X connect 0 0 2 0;
#X connect 1 0 0 0;
#X connect 2 0 4 0;
#X connect 3 0 9 0;
#X connect 3 0 15 0;
#X connect 4 0 10 0;
#X connect 5 0 6 0;
#X connect 6 0 1 0;
#X connect 6 1 7 0;
#X connect 7 0 8 0;
#X connect 7 0 10 1;
#X connect 8 0 3 1;
#X connect 8 0 11 0;
#X connect 10 0 3 0;
#X connect 10 0 13 0;
#X connect 11 1 12 0;
#X connect 12 0 20 0;
#X connect 13 1 14 0;
#X connect 15 1 22 0;
#X connect 16 0 21 0;
#X connect 22 0 16 0;
